<svg height="511pt" viewBox="1 -81 511.99964 511" width="511pt" xmlns="http://www.w3.org/2000/svg"><path d="m51.367188 274.953125 13.632812-13.632813c6.425781-6.425781 16.84375-6.425781 23.269531 0 6.429688 6.425782 6.429688 16.84375 0 23.273438l-13.632812 13.632812c-6.425781 6.425782-16.84375 6.425782-23.269531 0-6.429688-6.429687-6.429688-16.847656 0-23.273437zm0 0" fill="#91edf8"/><path d="m4.820312 321.496094 13.632813-13.628906c6.425781-6.429688 16.84375-6.429688 23.273437 0 6.425782 6.425781 6.425782 16.84375 0 23.269531l-13.632812 13.632812c-6.425781 6.429688-16.847656 6.429688-23.273438 0-6.425781-6.425781-6.425781-16.84375 0-23.273437zm0 0" fill="#91edf8"/><path d="m23.273438 314.679688c0 6.429687-5.210938 11.636718-11.636719 11.636718s-11.636719-5.207031-11.636719-11.636718c0-6.425782 5.210938-11.632813 11.636719-11.632813s11.636719 5.207031 11.636719 11.632813zm0 0" fill="#bcf4f5"/><path d="m46.546875 314.679688c0 6.429687-5.210937 11.636718-11.636719 11.636718-6.425781 0-11.636718-5.207031-11.636718-11.636718 0-6.425782 5.210937-11.632813 11.636718-11.632813 6.425782 0 11.636719 5.207031 11.636719 11.632813zm0 0" fill="#48e1f4"/><g fill="#91edf8"><path d="m121.183594 274.953125 13.632812-13.632813c6.425782-6.425781 16.847656-6.425781 23.273438 0 6.425781 6.425782 6.425781 16.84375 0 23.273438l-13.632813 13.632812c-6.425781 6.425782-16.847656 6.425782-23.273437 0-6.425782-6.429687-6.425782-16.847656 0-23.273437zm0 0"/><path d="m74.636719 321.496094 13.632812-13.628906c6.425781-6.429688 16.847657-6.429688 23.273438 0 6.425781 6.425781 6.425781 16.84375 0 23.269531l-13.632813 13.632812c-6.425781 6.429688-16.84375 6.429688-23.273437 0-6.425781-6.425781-6.425781-16.84375 0-23.273437zm0 0"/><path d="m191.003906 274.953125 13.628906-13.632813c6.429688-6.425781 16.847657-6.425781 23.273438 0 6.429688 6.425782 6.429688 16.84375 0 23.273438l-13.632812 13.632812c-6.425782 6.425782-16.84375 6.425782-23.269532 0-6.429687-6.429687-6.429687-16.847656 0-23.273437zm0 0"/><path d="m144.457031 321.496094 13.632813-13.628906c6.425781-6.429688 16.84375-6.429688 23.273437 0 6.425781 6.425781 6.425781 16.84375 0 23.269531l-13.632812 13.632812c-6.429688 6.429688-16.847657 6.429688-23.273438 0-6.425781-6.425781-6.425781-16.84375 0-23.273437zm0 0"/><path d="m260.820312 274.953125 13.632813-13.632813c6.425781-6.425781 16.84375-6.425781 23.273437 0 6.425782 6.425782 6.425782 16.84375 0 23.273438l-13.632812 13.632812c-6.425781 6.425782-16.847656 6.425782-23.273438 0-6.425781-6.429687-6.425781-16.847656 0-23.273437zm0 0"/><path d="m214.273438 321.496094 13.632812-13.628906c6.425781-6.429688 16.847656-6.429688 23.273438 0 6.425781 6.425781 6.425781 16.84375 0 23.269531l-13.632813 13.632812c-6.425781 6.429688-16.84375 6.429688-23.273437 0-6.425782-6.425781-6.425782-16.84375 0-23.273437zm0 0"/></g><path d="m93.089844 314.679688c0 6.429687-5.207032 11.636718-11.636719 11.636718-6.425781 0-11.636719-5.207031-11.636719-11.636718 0-6.425782 5.210938-11.632813 11.636719-11.632813 6.429687 0 11.636719 5.207031 11.636719 11.632813zm0 0" fill="#bcf4f5"/><path d="m116.363281 314.679688c0 6.429687-5.210937 11.636718-11.636719 11.636718-6.425781 0-11.636718-5.207031-11.636718-11.636718 0-6.425782 5.210937-11.632813 11.636718-11.632813 6.425782 0 11.636719 5.207031 11.636719 11.632813zm0 0" fill="#48e1f4"/><path d="m162.910156 314.679688c0 6.429687-5.210937 11.636718-11.636718 11.636718-6.425782 0-11.636719-5.207031-11.636719-11.636718 0-6.425782 5.210937-11.632813 11.636719-11.632813 6.425781 0 11.636718 5.207031 11.636718 11.632813zm0 0" fill="#bcf4f5"/><path d="m186.183594 314.679688c0 6.429687-5.210938 11.636718-11.636719 11.636718s-11.636719-5.207031-11.636719-11.636718c0-6.425782 5.210938-11.632813 11.636719-11.632813s11.636719 5.207031 11.636719 11.632813zm0 0" fill="#48e1f4"/><path d="m232.726562 314.679688c0 6.429687-5.210937 11.636718-11.636718 11.636718-6.425782 0-11.636719-5.207031-11.636719-11.636718 0-6.425782 5.210937-11.632813 11.636719-11.632813 6.425781 0 11.636718 5.207031 11.636718 11.632813zm0 0" fill="#bcf4f5"/><path d="m256 314.679688c0 6.429687-5.210938 11.636718-11.636719 11.636718s-11.636719-5.207031-11.636719-11.636718c0-6.425782 5.210938-11.632813 11.636719-11.632813s11.636719 5.207031 11.636719 11.632813zm0 0" fill="#48e1f4"/><path d="m69.816406 268.136719c0 6.425781-5.207031 11.636719-11.632812 11.636719-6.429688 0-11.636719-5.210938-11.636719-11.636719s5.207031-11.636719 11.636719-11.636719c6.425781 0 11.632812 5.210938 11.632812 11.636719zm0 0" fill="#bcf4f5"/><path d="m93.089844 268.136719c0 6.425781-5.207032 11.636719-11.636719 11.636719-6.425781 0-11.636719-5.210938-11.636719-11.636719s5.210938-11.636719 11.636719-11.636719c6.429687 0 11.636719 5.210938 11.636719 11.636719zm0 0" fill="#48e1f4"/><path d="m139.636719 268.136719c0 6.425781-5.210938 11.636719-11.636719 11.636719s-11.636719-5.210938-11.636719-11.636719 5.210938-11.636719 11.636719-11.636719 11.636719 5.210938 11.636719 11.636719zm0 0" fill="#bcf4f5"/><path d="m162.910156 268.136719c0 6.425781-5.210937 11.636719-11.636718 11.636719-6.425782 0-11.636719-5.210938-11.636719-11.636719s5.210937-11.636719 11.636719-11.636719c6.425781 0 11.636718 5.210938 11.636718 11.636719zm0 0" fill="#48e1f4"/><path d="m209.453125 268.136719c0 6.425781-5.207031 11.636719-11.636719 11.636719-6.425781 0-11.632812-5.210938-11.632812-11.636719s5.207031-11.636719 11.632812-11.636719c6.429688 0 11.636719 5.210938 11.636719 11.636719zm0 0" fill="#bcf4f5"/><path d="m232.726562 268.136719c0 6.425781-5.210937 11.636719-11.636718 11.636719-6.425782 0-11.636719-5.210938-11.636719-11.636719s5.210937-11.636719 11.636719-11.636719c6.425781 0 11.636718 5.210938 11.636718 11.636719zm0 0" fill="#48e1f4"/><path d="m279.273438 268.136719c0 6.425781-5.210938 11.636719-11.636719 11.636719s-11.636719-5.210938-11.636719-11.636719 5.210938-11.636719 11.636719-11.636719 11.636719 5.210938 11.636719 11.636719zm0 0" fill="#bcf4f5"/><path d="m302.546875 268.136719c0 6.425781-5.210937 11.636719-11.636719 11.636719-6.425781 0-11.636718-5.210938-11.636718-11.636719s5.210937-11.636719 11.636718-11.636719c6.425782 0 11.636719 5.210938 11.636719 11.636719zm0 0" fill="#48e1f4"/><path d="m465.453125 233.226562h-401.648437c-13.722657 0-27.007813-5.773437-35.578126-16.488281-13.027343-16.285156-28.226562-46.679687-28.226562-99.875 0-53.195312 15.199219-83.589843 28.226562-99.875 8.570313-10.714843 21.855469-16.488281 35.578126-16.488281h401.648437c25.707031 0 46.546875 20.839844 46.546875 46.546875v139.632813c0 25.707031-20.839844 46.546874-46.546875 46.546874zm0 0" fill="#cacad4"/><path d="m46.546875 116.863281h279.269531c12.855469 0 23.273438 10.417969 23.273438 23.273438 0 12.851562-10.417969 23.273437-23.273438 23.273437h-279.269531c-12.855469 0-23.273437-10.421875-23.273437-23.273437 0-12.851563 10.417968-23.273438 23.273437-23.273438zm0 0" fill="#999aac"/><path d="m69.816406 163.410156h279.273438c12.855468 0 23.273437 10.417969 23.273437 23.269532 0 12.855468-10.417969 23.273437-23.273437 23.273437h-279.273438c-12.851562 0-23.269531-10.417969-23.269531-23.273437 0-12.851563 10.417969-23.269532 23.269531-23.269532zm0 0" fill="#4c4f6e"/><path d="m69.816406 163.410156h46.546875c12.851563 0 23.273438 10.417969 23.273438 23.269532 0 12.855468-10.417969 23.273437-23.273438 23.273437h-46.546875c-12.851562 0-23.269531-10.417969-23.269531-23.273437 0-12.851563 10.417969-23.269532 23.269531-23.269532zm0 0" fill="#2c2f53"/><path d="m465.453125 233.226562h-29.285156c-13.722657 0-27.007813-5.773437-35.578125-16.488281-13.027344-16.285156-28.226563-46.679687-28.226563-99.875 0-53.195312 15.199219-83.589843 28.226563-99.875 8.570312-10.714843 21.855468-16.488281 35.578125-16.488281h29.285156c25.707031 0 46.546875 20.839844 46.546875 46.546875v139.632813c0 25.707031-20.839844 46.546874-46.546875 46.546874zm0 0" fill="#999aac"/><path d="m23.273438 140.136719h325.816406c12.855468 0 23.273437 10.417969 23.273437 23.273437 0 12.851563-10.417969 23.273438-23.273437 23.273438h-325.816406c-12.855469-.003906-23.273438-10.421875-23.273438-23.273438 0-12.855468 10.417969-23.273437 23.273438-23.273437zm0 0" fill="#eaeaee"/><path d="m58.183594 23.773438h290.90625c6.429687 0 11.636718 5.210937 11.636718 11.636718 0 6.425782-5.207031 11.636719-11.636718 11.636719h-290.90625c-6.429688 0-11.636719-5.210937-11.636719-11.636719 0-6.425781 5.207031-11.636718 11.636719-11.636718zm0 0" fill="#4c4f6e"/><path d="m34.910156 70.316406h279.273438c6.425781 0 11.632812 5.210938 11.632812 11.636719s-5.207031 11.636719-11.632812 11.636719h-279.273438c-6.425781 0-11.636718-5.210938-11.636718-11.636719s5.210937-11.636719 11.636718-11.636719zm0 0" fill="#4c4f6e"/><path d="m34.910156 70.316406h93.089844c6.425781 0 11.636719 5.210938 11.636719 11.636719s-5.210938 11.636719-11.636719 11.636719h-93.089844c-6.425781 0-11.636718-5.210938-11.636718-11.636719s5.210937-11.636719 11.636718-11.636719zm0 0" fill="#2c2f53"/><path d="m58.183594 23.773438h69.816406c6.425781 0 11.636719 5.210937 11.636719 11.636718 0 6.425782-5.210938 11.636719-11.636719 11.636719h-69.816406c-6.429688 0-11.636719-5.210937-11.636719-11.636719 0-6.425781 5.207031-11.636718 11.636719-11.636718zm0 0" fill="#2c2f53"/><path d="m477.089844.5c6.425781 0 11.636718 5.210938 11.636718 11.636719v209.453125c0 6.425781-5.210937 11.636718-11.636718 11.636718-6.425782 0-11.636719-5.210937-11.636719-11.636718v-209.453125c0-6.425781 5.210937-11.636719 11.636719-11.636719zm0 0" fill="#cacad4"/><path d="m453.816406.5c6.429688 0 11.636719 5.210938 11.636719 11.636719v209.453125c0 6.425781-5.207031 11.636718-11.636719 11.636718-6.425781 0-11.632812-5.210937-11.632812-11.636718v-209.453125c0-6.425781 5.207031-11.636719 11.632812-11.636719zm0 0" fill="#7c7f95"/></svg>