<?xml version="1.0" encoding="iso-8859-1"?>
<!-- Generator: Adobe Illustrator 19.0.0, SVG Export Plug-In . SVG Version: 6.00 Build 0)  -->
<svg version="1.1" id="Capa_1" xmlns="http://www.w3.org/2000/svg" xmlns:xlink="http://www.w3.org/1999/xlink" x="0px" y="0px"
	 viewBox="0 0 496 496" style="enable-background:new 0 0 496 496;" xml:space="preserve">
<g>
	<g>
		<g>
			<path d="M248,219.996c-13.232,0-24,10.768-24,24s10.768,24,24,24s24-10.768,24-24S261.232,219.996,248,219.996z M248,251.996
				c-4.416,0-8-3.584-8-8c0-4.416,3.584-8,8-8s8,3.584,8,8S252.416,251.996,248,251.996z" fill="#d7c72e"/>
			<path d="M469.8,147.996h-3.288c-2.408,0-4.8,0.328-7.088,0.976l-53.2,14.936l-11.576-46.32l11.304-2.96
				c6.424-1.68,11.744-5.72,14.976-11.368c3.128-5.48,3.904-11.816,2.192-17.856v-0.008c-3.568-12.512-16.968-19.944-29.832-16.584
				l-63.232,16.544c-6.424,1.688-11.744,5.728-14.968,11.384c-3.128,5.472-3.904,11.808-2.192,17.856
				c2.984,10.48,12.84,17.392,23.536,17.392c2.088,0,4.2-0.256,6.296-0.808l12.048-3.152l11.752,47.024L271.88,201.62
				c-7.296-3.616-15.432-5.624-23.88-5.624c-18.584,0-35.576,9.776-45.336,25.048l-76.776,21.552l-11.248-45.008l11.304-2.96
				c6.424-1.68,11.744-5.72,14.976-11.368c3.128-5.48,3.904-11.816,2.192-17.856v-0.008c-3.56-12.52-16.952-19.928-29.832-16.584
				l-63.232,16.544c-6.424,1.688-11.744,5.728-14.968,11.384c-3.128,5.472-3.904,11.808-2.192,17.856
				c2.984,10.48,12.84,17.392,23.536,17.392c2.088,0,4.2-0.256,6.296-0.808l12.048-3.152l11.424,45.712L19.12,272.564
				C7.856,275.724,0,286.1,0,297.796c0,14.44,11.76,26.2,26.2,26.2h3.288c2.408,0,4.8-0.328,7.088-0.976l141.696-39.768L152,354.564
				v9.432h-16v64h224v-64h-16v-9.432l-39.344-106.792l172.224-48.344C488.136,196.276,496,185.9,496,174.204
				C496,159.756,484.24,147.996,469.8,147.996z M338.672,115.7c-4.528,1.176-9.2-1.264-10.4-5.472
				c-0.528-1.872-0.28-3.84,0.696-5.552c1.08-1.888,2.904-3.256,5.136-3.832L397.328,84.3c0.776-0.208,1.544-0.304,2.312-0.304
				c3.712,0,7.088,2.28,8.088,5.768c0.528,1.872,0.28,3.84-0.696,5.552c-1.08,1.888-2.904,3.248-5.136,3.832L338.672,115.7z
				 M390.816,168.236l-8.888,2.496L370.24,123.98l8.928-2.336L390.816,168.236z M58.672,195.7c-4.512,1.184-9.2-1.264-10.4-5.472
				c-0.528-1.872-0.28-3.848,0.696-5.552c1.08-1.888,2.904-3.256,5.136-3.832l63.224-16.544c0.776-0.208,1.544-0.304,2.312-0.304
				c3.712,0,7.088,2.28,8.088,5.768c0.528,1.872,0.28,3.848-0.696,5.552c-1.08,1.888-2.904,3.248-5.136,3.832L58.672,195.7z
				 M110.488,246.924l-8.888,2.488L90.24,203.98l8.928-2.336L110.488,246.924z M32.232,307.62c-0.88,0.248-1.8,0.376-2.736,0.376
				H26.2c-5.624,0-10.2-4.576-10.2-10.2c0-4.552,3.064-8.592,7.448-9.824l170.744-47.928l-9.088,24.664L32.232,307.62z M328,357.428
				v6.568h-16v16h32v32H152v-32h144v-16H168v-6.568l44.448-120.64c5.456-14.832,19.744-24.792,35.552-24.792
				s30.096,9.96,35.552,24.792L328,357.428z M472.552,184.02l-173.448,48.688l-0.536-1.456c-2.44-6.616-6.224-12.44-10.808-17.472
				l176.008-49.408c0.88-0.248,1.8-0.376,2.736-0.376h3.288c5.632,0,10.208,4.576,10.208,10.2
				C480,178.756,476.936,182.796,472.552,184.02z" fill="#d7c72e"/>
		</g>
	</g>
</g>
<g>
</g>
<g>
</g>
<g>
</g>
<g>
</g>
<g>
</g>
<g>
</g>
<g>
</g>
<g>
</g>
<g>
</g>
<g>
</g>
<g>
</g>
<g>
</g>
<g>
</g>
<g>
</g>
<g>
</g>
</svg>
